<svg xmlns="http://www.w3.org/2000/svg" viewBox="0 0 935 693.25557">
  <title>extend</title>
  <g>
    <path
      d="M396.60839999999996,540.9995070996093 c-4,0 -8.02442,-0.12891000000000002 -11.98535,-0.3808600000000001 l0.12695,-1.9961 c3.92383,0.25 7.90918,0.37700000000000006 11.84766,0.37700000000000006 l0.11816000000000003,-0.0010000000000000002 v2 l-0.09375000000000003,0.0010000000000000002 zm12.20605,-0.3974600000000001 l-0.13086,-1.9961 c3.9668,-0.25878999999999996 7.97559,-0.65136 11.91407,-1.166 l0.25976,1.9824199999999998 C416.876,539.9438370996094 412.82421999999997,540.3403270996093 408.81444999999997,540.6020470996094 zm-36.2373,-1.14649 c-3.98828,-0.5175799999999999 -8.00684,-1.17285 -11.94434,-1.94922 l0.38672000000000006,-1.9628900000000002 c3.89453,0.76856 7.87012,1.417 11.81543,1.92774 zm60.22168,-1.998 l-0.38867000000000007,-1.9609400000000001 c3.89648,-0.77344 7.81933,-1.68653 11.6582,-2.71387 l0.5175799999999999,1.9316400000000002 C440.70507999999995,535.7534070996094 436.73925999999994,536.6762670996094 432.79882999999995,537.4575170996094 zm-83.95606,-2.68067 c-3.875,-1.03223 -7.77343,-2.209 -11.58593,-3.499 l0.6406200000000002,-1.89453 c3.77149,1.27539 7.62744,2.44043 11.46,3.46093 zM456.16700000000003,531.1996970996094 l-0.64258,-1.89453 c3.7510000000000003,-1.27441 7.5127,-2.69238 11.18164,-4.21582 l0.76758,1.84766 C463.76367000000005,528.4760670996094 459.96000000000004,529.9106370996094 456.16700000000003,531.1996970996094 zm-130.25781,-4.18554 c-3.71094,-1.5351599999999999 -7.4248,-3.2168 -11.03857,-4.999 l0.8847600000000001,-1.7930000000000001 c3.57422,1.7617200000000002 7.24756,3.42579 10.91846,4.94434 zm152.57129,-5.07618 l-0.8867200000000002,-1.7930000000000001 c3.5625,-1.7617200000000002 7.10938,-3.66211 10.542,-5.64844 l1.002,1.73047 C485.66700000000003,518.2358370996094 482.082,520.1577070996094 478.48046999999997,521.9379770996094 zm-174.293,-5.63574 c-3.481,-2.01074 -6.94091,-4.16406 -10.28368,-6.3994100000000005 l1.11133,-1.6621100000000002 c3.30713,2.21094 6.72949,4.34082 10.17235,6.3291 zm195.21388,-6.47363 l-1.11328,-1.6621100000000002 c3.29687,-2.20605 6.56738,-4.55371 9.72168,-6.97852 l1.21875,1.5859400000000001 C506.03999999999996,505.22508709960937 502.73339999999996,507.5981370996094 499.40137000000004,509.82860709960937 zM284.062,502.8471570996094 c-3.186,-2.44531 -6.335,-5.02929 -9.35937,-7.67968 l1.3183600000000002,-1.5039099999999999 c2.9917,2.62207 6.10693,5.17773 9.25879,7.59766 zM518.5791,495.09177709960943 l-1.32031,-1.50293 c2.9863299999999997,-2.62158 5.92578,-5.37549 8.7373,-8.186 l1.4140700000000002,1.41406 C524.56836,489.6581970996094 521.59766,492.4418870996094 518.5791,495.09177709960943 zM265.86475,486.89647709960934 c-2.84424,-2.84033 -5.63037,-5.80957 -8.28077,-8.82617 l1.502,-1.32031 c2.62256,2.98388 5.37842,5.92187 8.19189,8.73144 zm269.82274,-8.91211 l-1.5039,-1.3193300000000001 c2.62305,-2.98877 5.18164,-6.10206 7.60352,-9.25391 l1.5859400000000001,1.21875 C540.9248,471.8159070996094 538.33887,474.96288709960936 535.68749,477.98436709960936 zM249.89600000000002,468.7255770996094 c-2.44922,-3.1831 -4.8252,-6.48779 -7.06153,-9.82226 l1.66114,-1.11426 c2.21191,3.29931 4.5625,6.56836 6.98535,9.7168 zm300.53955,-9.93359 l-1.6621100000000002,-1.11231 c2.21289,-3.30664 4.34472,-6.72754 6.33594,-10.16894 l1.7304599999999999,1.00195 C554.82715,451.99120709960937 552.67285,455.44969709960935 550.43555,458.7919870996094 zM236.42969,448.64354709960935 c-2.01514,-3.47656 -3.939,-7.061 -5.71778,-10.65381 l1.792,-0.8876900000000002 c1.75976,3.55371 3.66308,7.09961 5.65625,10.53857 zm326.12988,-10.81055 l-1.7930000000000001,-0.8857400000000002 c1.7607400000000002,-3.564 3.42676,-7.23633 4.95215,-10.915 l1.84766,0.7656300000000001 C566.02441,430.5170870996094 564.33984,434.2299770996094 562.55957,437.83299709960943 zM225.70605,426.9863170996093 c-1.541,-3.7060500000000003 -2.9779999999999998,-7.50927 -4.271,-11.3042 l1.89355,-0.64453 c1.2783200000000001,3.75293 2.69971,7.51514 4.22412,11.18116 zm346.13184,-11.53271 l-1.89453,-0.6416000000000002 c1.27637,-3.7656300000000003 2.44336,-7.62061 3.46875,-11.4585 l1.9316400000000002,0.5166000000000001 C574.30762,407.7495070996094 573.12793,411.64696709960936 571.83789,415.45360709960937 zM217.9126,404.1035070996094 c-1.042,-3.87988 -1.96778,-7.84521 -2.75244,-11.78515 l1.96191,-0.39063000000000003 c0.77539,3.89746 1.69141,7.81934 2.72217,11.65723 zm360.16748,-12.02295 l-1.9628900000000002,-0.38769000000000003 c0.7714799999999999,-3.89746 1.42285,-7.87207 1.93652,-11.81348 l1.9824199999999998,0.25878999999999996 C579.51758,384.1225470996094 578.8584,388.14061709960936 578.08008,392.0805570996094 zM213.18900000000002,380.3788970996094 c-0.5229400000000001,-3.97314 -0.92236,-8.02441 -1.188,-12.042 l1.9960900000000001,-0.13184 c0.26221,3.97461 0.6577200000000002,7.98243 1.17481,11.91309 zM581.209,368.0937770996094 l-1.9960900000000001,-0.12891000000000002 c0.25488000000000005,-3.95166 0.38477000000000006,-7.97705 0.38477000000000006,-11.96484 l-0.0010000000000000002,-0.47461000000000003 h2 l0.0010000000000000002,0.46826 C581.59766,360.0302670996094 581.4668,364.0991170996094 581.209,368.0937770996094 zm-367.6123,-11.855 h-2 l0.0004900000000000002,-0.24512 c0,-3.94043 0.12549000000000002,-7.92871 0.37353000000000003,-11.84766 l1.9961,0.126 c-0.24512,3.87744 -0.36963,7.82324 -0.36963,11.728 zm365.585,-12.67774 c-0.26562,-3.96728 -0.6660000000000001,-7.9751 -1.1894500000000001,-11.91162 l1.9824199999999998,-0.26367 c0.5293,3.98 0.93359,8.03125 1.20312,12.0415 zM215.11034999999998,332.3554570996094 l-1.9834,-0.25585 c0.51368,-3.98438 1.167,-8.00342 1.94043,-11.94532 l1.9628900000000002,0.38575000000000004 C216.26465000000002,324.4384670996094 215.61865,328.41405709960935 215.11034999999998,332.3554570996094 zm360.915,-12.51416 c-0.78027,-3.895 -1.70117,-7.81543 -2.7373000000000003,-11.65332 l1.9316400000000002,-0.5214799999999999 c1.04687,3.88037 1.9775399999999999,7.84424 2.7666000000000004,11.78223 zM219.72168,308.8754770996094 l-1.93262,-0.5136700000000001 c1.03223,-3.88574 2.20752,-7.78467 3.49268,-11.58838 l1.89453,0.6396500000000002 C221.90526999999997,301.17528709960936 220.74316,305.03177709960937 219.72168,308.8754770996094 zM569.78906,296.7397770996094 c-1.28418,-3.75586 -2.71,-7.51562 -4.23828,-11.17529 l1.8457000000000001,-0.7705099999999999 c1.54493,3.7002 2.9863299999999997,7.50147 4.28516,11.29834 zM227.38477,286.1874970996094 l-1.84864,-0.7636800000000001 c1.5351599999999999,-3.71582 3.21485,-7.43066 4.99268,-11.0415 l1.79394,0.8837900000000002 C230.56445000000002,278.83739709960935 228.90283,282.5117070996094 227.38477,286.1874970996094 zm333.20019,-11.5 c-1.75976,-3.54541 -3.6670000000000003,-7.08838 -5.66894,-10.53174 l1.72851,-1.00489 c2.02442,3.48047 3.95215,7.063 5.73145,10.647 zm-322.61767,-9.99414 l-1.73243,-0.999 c2.00733,-3.48 4.15772,-6.9414 6.39209,-10.2876 l1.6630900000000002,1.11036 C242.08008,257.8276270996094 239.95263999999997,261.25145709960935 237.96729,264.6933570996094 zm310.60009,-10.67872 c-2.21875,-3.2998000000000003 -4.57324,-6.56591 -6.998,-9.708 l1.584,-1.22168 c2.4502,3.17627 4.83106,6.478 7.07422,9.81347 zm-297.30371,-9.23779 l-1.5874000000000001,-1.2168 c2.44531,-3.18994 5.02734,-6.34082 7.67432,-9.36425 l1.50488,1.31738 C256.23682,238.5043870996094 253.68262,241.62108709960938 251.26367,244.77684709960937 zm282.68848,-9.7041 c-2.624,-2.9779999999999998 -5.38281,-5.91211 -8.20313,-8.72119 l1.41211,-1.417 c2.84961,2.83935 5.6396500000000005,5.80566 8.291,8.81591 zm-266.92041,-8.30859 l-1.416,-1.41211 c2.8378900000000002,-2.84473 5.80567,-5.632820000000001 8.8208,-8.28614 l1.32129,1.501 C272.7749,221.19237709960936 269.83887,223.95018709960937 267.03174,226.76415709960935 zm249.96338,-8.583 c-2.9961,-2.61963 -6.11426,-5.17188 -9.26758,-7.58594 l1.2148400000000001,-1.5878900000000002 c3.18848,2.43994 6.34082,5.02 9.36914,7.668 zm-231.99854,-7.2251 l-1.2207000000000001,-1.584 c3.18066,-2.45118 6.48437,-4.82911 9.81836,-7.06787 l1.11523,1.6601500000000002 C291.41113,206.17919709960938 288.14307,208.53177709960937 284.99658,210.95604709960935 zm212.98584,-7.32812 c-3.30859,-2.20606 -6.73437,-4.33106 -10.18066,-6.31641 l0.998,-1.7334 c3.4843800000000003,2.00733 6.94727,4.15576 10.292,6.38574 zm-193.12793,-6.00586 l-1.0039,-1.7295 c3.46923,-2.01416 7.05224,-3.94043 10.6499,-5.72509 l0.8886700000000002,1.792 C311.83057,193.7246070996094 308.28662,195.62987709960936 304.85449,197.62206709960935 zm172.3711,-5.94825 c-3.57227,-1.7563400000000002 -7.24707,-3.415 -10.92383,-4.93115 l0.7617200000000002,-1.84863 c3.7177700000000002,1.53223 7.43359,3.20947 11.04492,4.98486 zM326.27,187.0009670996094 l-0.76953,-1.84619 c3.70556,-1.54346 7.50781,-2.98291 11.30127,-4.27783 l0.64648,1.8925800000000002 C333.6958,184.05077709960938 329.93506,185.4746070996094 326.27,187.0009670996094 zm128.80225,-4.46 c-3.7656300000000003,-1.2690000000000001 -7.62305,-2.42871 -11.46387,-3.44678 l0.5117200000000001,-1.9335900000000001 c3.8837900000000003,1.0293 7.7832,2.20166 11.59082,3.4848600000000003 zm-106.17383,-3.26269 l-0.5195299999999999,-1.9316400000000002 c3.87744,-1.04395 7.8417900000000005,-1.97217 11.78222,-2.75977 l0.3925800000000001,1.9609400000000001 C356.65527,177.3271370996094 352.73438,178.24559709960937 348.89844,179.27831709960935 zm83.043,-2.86768 c-3.89453,-0.76221 -7.87012,-1.40527 -11.81641,-1.91211 l0.25391,-1.9834 c3.98925,0.5117200000000001 8.00879,1.16211 11.94726,1.93262 zm-59.57911,-1.82031 l-0.26171,-1.9824199999999998 c3.97265,-0.52539 8.02343,-0.9277400000000001 12.042,-1.19532 l0.13281,1.99561 C380.30078000000003,173.67284709960938 376.292,174.07077709960936 372.3623,174.5903270996094 zm35.84571,-1.228 c-3.83887,-0.24023000000000003 -7.74512,-0.36230000000000007 -11.61035,-0.36230000000000007 l-0.35645000000000004,0.0004800000000000002 v-2 l0.35254,-0.0004800000000000002 c3.91113,0 7.85938,0.12300000000000001 11.73926,0.36621000000000004 z"
      fill="#e6e6e6" />
    <path
      d="M692.6084,369.9995070996094 c-4,0 -8.02442,-0.12891000000000002 -11.98535,-0.3808600000000001 l0.12695,-1.9961 c3.92383,0.25 7.90918,0.37700000000000006 11.84766,0.37700000000000006 l0.11816000000000003,-0.0010000000000000002 v2 l-0.09375000000000003,0.0010000000000000002 zm12.20605,-0.3974600000000001 l-0.13086,-1.9961 c3.9668,-0.25878999999999996 7.97559,-0.65136 11.91407,-1.166 l0.25976,1.9824199999999998 C712.876,368.94383709960937 708.82422,369.3403270996094 704.81445,369.60204709960936 zm-36.2373,-1.14649 c-3.98828,-0.5175799999999999 -8.00684,-1.17285 -11.94434,-1.94922 l0.38672000000000006,-1.9628900000000002 c3.89453,0.76856 7.87012,1.417 11.81543,1.92774 zm60.22168,-1.998 l-0.38867000000000007,-1.9609400000000001 c3.89648,-0.77344 7.81933,-1.68653 11.6582,-2.71387 l0.5175799999999999,1.9316400000000002 C736.70508,364.7534070996094 732.73926,365.6762670996094 728.79883,366.4575170996094 zm-83.95606,-2.68067 c-3.875,-1.03223 -7.77343,-2.209 -11.58593,-3.499 l0.6406200000000002,-1.89453 c3.77149,1.27539 7.62744,2.44043 11.46,3.46093 zM752.167,360.19969709960935 l-0.64258,-1.89453 c3.7510000000000003,-1.27441 7.5127,-2.69238 11.18164,-4.21582 l0.76758,1.84766 C759.76367,357.4760670996094 755.96,358.9106370996094 752.167,360.19969709960935 zm-130.25781,-4.18554 c-3.71094,-1.5351599999999999 -7.4248,-3.2168 -11.03857,-4.999 l0.8847600000000001,-1.7930000000000001 c3.57422,1.7617200000000002 7.24756,3.42579 10.91846,4.94434 zm152.57129,-5.07618 l-0.8867200000000002,-1.7930000000000001 c3.5625,-1.7617200000000002 7.10938,-3.66211 10.542,-5.64844 l1.002,1.73047 C781.667,347.2358370996094 778.082,349.15770709960935 774.48047,350.9379770996094 zm-174.293,-5.63574 c-3.481,-2.01074 -6.94091,-4.16406 -10.28368,-6.3994100000000005 l1.11133,-1.6621100000000002 c3.30713,2.21094 6.72949,4.34082 10.17235,6.3291 zm195.21388,-6.47363 l-1.11328,-1.6621100000000002 c3.29687,-2.20605 6.56738,-4.55371 9.72168,-6.97852 l1.21875,1.5859400000000001 C802.04,334.22508709960937 798.7334,336.5981370996094 795.40137,338.82860709960937 zM580.062,331.8471570996094 c-3.186,-2.44531 -6.335,-5.02929 -9.35937,-7.67968 l1.3183600000000002,-1.5039099999999999 c2.9917,2.62207 6.10693,5.17773 9.25879,7.59766 zM814.5791,324.0917770996094 l-1.32031,-1.50293 c2.9863299999999997,-2.62158 5.92578,-5.37549 8.7373,-8.186 l1.4140700000000002,1.41406 C820.56836,318.65819709960937 817.59766,321.4418870996094 814.5791,324.0917770996094 zM561.86475,315.8964770996094 c-2.84424,-2.84033 -5.63037,-5.80957 -8.28077,-8.82617 l1.502,-1.32031 c2.62256,2.98388 5.37842,5.92187 8.19189,8.73144 zm269.82274,-8.91211 l-1.5039,-1.3193300000000001 c2.62305,-2.98877 5.18164,-6.10206 7.60352,-9.25391 l1.5859400000000001,1.21875 C836.9248,300.8159070996094 834.33887,303.96288709960936 831.68749,306.98436709960936 zM545.896,297.7255770996094 c-2.44922,-3.1831 -4.8252,-6.48779 -7.06153,-9.82226 l1.66114,-1.11426 c2.21191,3.29931 4.5625,6.56836 6.98535,9.7168 zm300.53955,-9.93359 l-1.6621100000000002,-1.11231 c2.21289,-3.30664 4.34472,-6.72754 6.33594,-10.16894 l1.7304599999999999,1.00195 C850.82715,280.99120709960937 848.67285,284.44969709960935 846.43555,287.7919870996094 zM532.42969,277.64354709960935 c-2.01514,-3.47656 -3.939,-7.061 -5.71778,-10.65381 l1.792,-0.8876900000000002 c1.75976,3.55371 3.66308,7.09961 5.65625,10.53857 zm326.12988,-10.81055 l-1.7930000000000001,-0.8857400000000002 c1.7607400000000002,-3.564 3.42676,-7.23633 4.95215,-10.915 l1.84766,0.7656300000000001 C862.02441,259.5170870996094 860.33984,263.22997709960936 858.55957,266.8329970996094 zM521.70605,255.98631709960938 c-1.541,-3.7060500000000003 -2.9779999999999998,-7.50927 -4.271,-11.3042 l1.89355,-0.64453 c1.2783200000000001,3.75293 2.69971,7.51514 4.22412,11.18116 zm346.13184,-11.53271 l-1.89453,-0.6416000000000002 c1.27637,-3.7656300000000003 2.44336,-7.62061 3.46875,-11.4585 l1.9316400000000002,0.5166000000000001 C870.30762,236.7495070996094 869.12793,240.64696709960936 867.83789,244.45360709960937 zM513.9126,233.10350709960937 c-1.042,-3.87988 -1.96778,-7.84521 -2.75244,-11.78515 l1.96191,-0.39063000000000003 c0.77539,3.89746 1.69141,7.81934 2.72217,11.65723 zm360.16748,-12.02295 l-1.9628900000000002,-0.38769000000000003 c0.7714799999999999,-3.89746 1.42285,-7.87207 1.93652,-11.81348 l1.9824199999999998,0.25878999999999996 C875.51758,213.1225470996094 874.8584,217.14061709960936 874.08008,221.0805570996094 zM509.18899999999996,209.3788970996094 c-0.5229400000000001,-3.97314 -0.92236,-8.02441 -1.188,-12.042 l1.9960900000000001,-0.13184 c0.26221,3.97461 0.6577200000000002,7.98243 1.17481,11.91309 zm368.02,-12.28515 l-1.9960900000000001,-0.12891000000000002 c0.25488000000000005,-3.95166 0.38477000000000006,-7.97705 0.38477000000000006,-11.96484 l-0.0010000000000000002,-0.47461000000000003 h2 l0.0010000000000000002,0.46826 C877.59766,189.03026709960938 877.4668,193.09911709960937 877.209,197.09377709960938 zm-367.6123,-11.855 h-2 l0.0004900000000000002,-0.24512 c0,-3.94043 0.12549000000000002,-7.92871 0.37353000000000003,-11.84766 l1.9961,0.126 c-0.24512,3.87744 -0.36963,7.82324 -0.36963,11.728 zm365.585,-12.67774 c-0.26562,-3.96728 -0.6660000000000001,-7.9751 -1.1894500000000001,-11.91162 l1.9824199999999998,-0.26367 c0.5293,3.98 0.93359,8.03125 1.20312,12.0415 zM511.11035000000004,161.3554570996094 l-1.9834,-0.25585 c0.51368,-3.98438 1.167,-8.00342 1.94043,-11.94532 l1.9628900000000002,0.38575000000000004 C512.26465,153.4384670996094 511.61865,157.41405709960935 511.11035000000004,161.3554570996094 zm360.915,-12.51416 c-0.78027,-3.895 -1.70117,-7.81543 -2.7373000000000003,-11.65332 l1.9316400000000002,-0.5214799999999999 c1.04687,3.88037 1.9775399999999999,7.84424 2.7666000000000004,11.78223 zM515.72168,137.87547709960938 l-1.93262,-0.5136700000000001 c1.03223,-3.88574 2.20752,-7.78467 3.49268,-11.58838 l1.89453,0.6396500000000002 C517.90527,130.17528709960936 516.74316,134.03177709960937 515.72168,137.87547709960938 zM865.78906,125.73977709960937 c-1.28418,-3.75586 -2.71,-7.51562 -4.23828,-11.17529 l1.8457000000000001,-0.7705099999999999 c1.54493,3.7002 2.9863299999999997,7.50147 4.28516,11.29834 zM523.38477,115.18749709960937 l-1.84864,-0.7636800000000001 c1.5351599999999999,-3.71582 3.21485,-7.43066 4.99268,-11.0415 l1.79394,0.8837900000000002 C526.56445,107.83739709960938 524.90283,111.51170709960937 523.38477,115.18749709960937 zm333.20019,-11.5 c-1.75976,-3.54541 -3.6670000000000003,-7.08838 -5.66894,-10.53174 l1.72851,-1.00489 c2.02442,3.48047 3.95215,7.063 5.73145,10.647 zm-322.61767,-9.99414 l-1.73243,-0.999 c2.00733,-3.48 4.15772,-6.9414 6.39209,-10.2876 l1.6630900000000002,1.11036 C538.08008,86.82762709960937 535.95264,90.25145709960938 533.96729,93.69335709960939 zm310.60009,-10.67872 c-2.21875,-3.2998000000000003 -4.57324,-6.56591 -6.998,-9.708 l1.584,-1.22168 c2.4502,3.17627 4.83106,6.478 7.07422,9.81347 zm-297.30371,-9.23779 l-1.5874000000000001,-1.2168 c2.44531,-3.18994 5.02734,-6.34082 7.67432,-9.36425 l1.50488,1.31738 C552.23682,67.50438709960937 549.68262,70.62108709960938 547.26367,73.77684709960937 zm282.68848,-9.7041 c-2.624,-2.9779999999999998 -5.38281,-5.91211 -8.20313,-8.72119 l1.41211,-1.417 c2.84961,2.83935 5.6396500000000005,5.80566 8.291,8.81591 zm-266.92041,-8.30859 l-1.416,-1.41211 c2.8378900000000002,-2.84473 5.80567,-5.632820000000001 8.8208,-8.28614 l1.32129,1.501 C568.7749,50.19237709960939 565.83887,52.950187099609366 563.03174,55.76415709960938 zm249.96338,-8.583 c-2.9961,-2.61963 -6.11426,-5.17188 -9.26758,-7.58594 l1.2148400000000001,-1.5878900000000002 c3.18848,2.43994 6.34082,5.02 9.36914,7.668 zm-231.99854,-7.2251 l-1.2207000000000001,-1.584 c3.18066,-2.45118 6.48437,-4.82911 9.81836,-7.06787 l1.11523,1.6601500000000002 C587.41113,35.17919709960938 584.14307,37.53177709960937 580.99658,39.95604709960938 zm212.98584,-7.32812 c-3.30859,-2.20606 -6.73437,-4.33106 -10.18066,-6.31641 l0.998,-1.7334 c3.4843800000000003,2.00733 6.94727,4.15576 10.292,6.38574 zm-193.12793,-6.00586 l-1.0039,-1.7295 c3.46923,-2.01416 7.05224,-3.94043 10.6499,-5.72509 l0.8886700000000002,1.792 C607.83057,22.724607099609372 604.28662,24.629877099609388 600.85449,26.62206709960938 zm172.3711,-5.94825 c-3.57227,-1.7563400000000002 -7.24707,-3.415 -10.92383,-4.93115 l0.7617200000000002,-1.84863 c3.7177700000000002,1.53223 7.43359,3.20947 11.04492,4.98486 zM622.27,16.00096709960937 l-0.76953,-1.84619 c3.70556,-1.54346 7.50781,-2.98291 11.30127,-4.27783 l0.64648,1.8925800000000002 C629.6958,13.050777099609377 625.93506,14.474607099609372 622.27,16.00096709960937 zm128.80225,-4.46 c-3.7656300000000003,-1.2690000000000001 -7.62305,-2.42871 -11.46387,-3.44678 l0.5117200000000001,-1.9335900000000001 c3.8837900000000003,1.0293 7.7832,2.20166 11.59082,3.4848600000000003 zm-106.17383,-3.26269 l-0.5195299999999999,-1.9316400000000002 c3.87744,-1.044 7.8417900000000005,-1.97217 11.78222,-2.75977 l0.3925800000000001,1.9609400000000001 C652.65527,6.327137099609374 648.73438,7.24559709960937 644.89844,8.278317099609382 zm83.043,-2.86768 c-3.89453,-0.76221 -7.87012,-1.40527 -11.81641,-1.91211 l0.25391,-1.9834 c3.98925,0.5117200000000001 8.00879,1.16211 11.94726,1.93262 zm-59.57911,-1.82031 l-0.26171,-1.9824199999999998 c3.97265,-0.52539 8.02343,-0.9277400000000001 12.042,-1.19532 l0.13281,1.99561 C676.30078,2.6728470996093705 672.292,3.070777099609373 668.3623,3.590327099609368 zm35.84571,-1.228 c-3.83887,-0.24023000000000003 -7.74512,-0.36230000000000007 -11.61035,-0.36230000000000007 l-0.35645000000000004,0.0004800000000000002 v-2 l0.35254,-0.0004800000000000002 c3.91113,0 7.85938,0.12300000000000001 11.73926,0.36621000000000004 z"
      fill="#e6e6e6" />
    <path
      d="M224.13171,136.25555709960938 h-0.00006000000000000002 c-27.71759,0 -47.8963,18.82032 -54.69879,45.69019 L161,222.25555709960935 h6 l13,-33 l-2.7368200000000003,33 H184 l5,-17 l-1.05261,17 H269 V181.12377709960936 A44.86825,44.86825 0 0 0 224.13171,136.25555709960938 z"
      fill="#2f2e41" />
    <path d="M212.5,188.75555709960935 s4,24 -6,28 s-11,4 -11,4 l18,55 l22,7 l24,-65 l-11,-5 s-11,-15 -7,-24 z"
      fill="#a0616a" />
    <path
      d="M177.5,377.75555709960935 s-20,24 -15,107 l-1,24 s-52,135 -18,142 s37,12 40,4 s51,-192 51,-192 s39,191 58,189 s44,4 43,-11 s-24,-130 -24,-130 s-5,-137 -31,-145 S201.5,354.75555709960935 177.5,377.75555709960935 z"
      fill="#2f2e41" />
    <path d="M151.5,643.7555570996094 l-9,23 s-16,22 -6,25 s24,-5 24,-5 s8,-30 8,-38 z" fill="#2f2e41" />
    <path d="M317.5,643.7555570996094 l9,23 s16,22 6,25 s-24,-5 -24,-5 s-8,-30 -8,-38 z" fill="#2f2e41" />
    <circle cx="225.5" cy="175.7555694580078" r="25" fill="#a0616a" />
    <path
      d="M229.5,256.75555709960935 s-22,-10 -31,-39 l-16,5 s5,32 2,39 c0,0 -4,101 -2,103 s-16,19 -10,21 s38,-3 34,-9 l-4,-6 l68,1 s-5,14 9,14 s6,-27 6,-27 l-9,-93 s-10,-34 -7,-46 l-14,-5 S247.5,243.75555709960935 229.5,256.75555709960935 z"
      fill="#3f3d56" />
    <polygon
      points="208.597 162 207.755 170 230.597 170 233.597 164 232.966 170 260.597 170 241.597 140 199.597 141 189.597 170 204.597 170 208.597 162"
      fill="#2f2e41" />
    <rect x="400" y="208.2555694580078" width="261" height="148" fill="#f2f2f2" />
    <circle cx="454.5" cy="242.2555694580078" r="24" fill="#fff" />
    <rect x="492.5" y="238.2555694580078" width="138" height="8" fill="#fff" />
    <rect x="492.5" y="258.2555847167969" width="138" height="8" fill="#fff" />
    <rect x="430.5" y="278.2555847167969" width="200" height="8" fill="#fff" />
    <rect x="430.5" y="298.2555847167969" width="200" height="8" fill="#fff" />
    <rect x="430.5" y="318.2555847167969" width="200" height="8" fill="#fff" />
    <rect x="430.5" y="338.2555847167969" width="200" height="8" fill="#fff" />
    <polygon
      points="567.409 357.256 399 357.256 399 207.256 662 207.256 662 266.204 660 266.204 660 209.256 401 209.256 401 355.256 567.409 355.256 567.409 357.256"
      fill="#3f3d56" />
    <rect x="96" y="420.2555847167969" width="261" height="148" fill="#f2f2f2" />
    <polygon
      points="264.41 569.256 96 569.256 96 419.256 359 419.256 359 478.204 357 478.204 357 421.256 98 421.256 98 567.256 264.41 567.256 264.41 569.256"
      fill="#3f3d56" />
    <path
      d="M185,222.25555709960935 s-21,-1 -21,16 s2,71 2,71 l2,17 l-1,69 s-19,43 -6,44 s20,-39 20,-39 l4,-36 s-2.5,-97.5 0.5,-101.5 z"
      fill="#a0616a" />
    <path
      d="M269,219.25555709960935 s21,-1 21,16 s-2,71 -2,71 l-2,17 l1,69 s19,43 6,44 s-20,-39 -20,-39 l-4,-36 s2.5,-97.5 -0.5,-101.5 z"
      fill="#a0616a" />
    <circle cx="228" cy="494.2555847167969" r="46" fill="#3d9968" />
    <polygon
      points="259 491.256 231 491.256 231 463.256 225 463.256 225 491.256 197 491.256 197 497.256 225 497.256 225 525.256 231 525.256 231 497.256 259 497.256 259 491.256"
      fill="#fff" />
    <rect x="2545" y="385.5111389160156" width="261" height="148" transform="rotate(-180 1739.5,271.88336181640625) "
      fill="#f2f2f2" />
    <polygon
      points="935 159.256 766.591 159.256 766.591 157.256 933 157.256 933 11.256 674 11.256 674 68.203 672 68.203 672 9.256 935 9.256 935 159.256"
      fill="#3f3d56" />
    <rect x="704" y="26.255569458007812" width="200" height="8" fill="#fff" />
    <rect x="704" y="44.25556945800781" width="200" height="8" fill="#fff" />
    <rect x="704" y="62.25556945800781" width="200" height="8" fill="#fff" />
    <rect x="704" y="80.25556945800781" width="200" height="8" fill="#fff" />
    <rect x="704" y="98.25556945800781" width="200" height="8" fill="#fff" />
    <rect x="861" y="120.25556945800781" width="43" height="23" fill="#fff" />
    <circle cx="657" cy="351.2555847167969" r="20" fill="#3d9968" />
    <polygon
      points="670.478 349.951 658.304 349.951 658.304 337.777 655.696 337.777 655.696 349.951 643.522 349.951 643.522 352.56 655.696 352.56 655.696 364.734 658.304 364.734 658.304 352.56 670.478 352.56 670.478 349.951"
      fill="#fff" />
    <circle cx="668" cy="155.2555694580078" r="20" fill="#3d9968" />
    <polygon
      points="681.478 153.951 669.304 153.951 669.304 141.777 666.696 141.777 666.696 153.951 654.522 153.951 654.522 156.56 666.696 156.56 666.696 168.734 669.304 168.734 669.304 156.56 681.478 156.56 681.478 153.951"
      fill="#fff" />
  </g>
</svg>