<svg xmlns="http://www.w3.org/2000/svg" viewBox="0 0 1280 985">
  <g>
    <g>
      <path d="M33.811265017831374,663.6248634262664 c-13.88783971226104,2.262808109585343 -31.30550535138843,8.737920546244942 -31.143480554745384,23.788495511025403 c0.08101239832152278,7.6355268518315675 5.138500693536585,14.145451720946323 10.057110591629037,19.727045057923505 a373.81435225502634,374.81385610054656 0 0 0 70.97843412941414,62.859648869865666 c12.522202140555372,8.505837663210546 25.981833461688364,16.640342713566064 34.30296408928477,29.787838037464496 s10.41587978419578,29.88067119067825 11.07555217052818,45.80155696683769 a351.10773432547956,352.0465252748725 0 0 1 -13.124008528086684,111.6898874603022 c40.77238275524637,7.786380725803924 86.24348461314106,14.609617487015113 120.22239910913974,-9.97956397047895 c20.34568517846242,-14.725658928532308 34.10621969336107,-39.39606939508841 56.77811802362722,-49.607716248601754 c15.137745286364535,-6.823236761211189 32.277654131246706,-6.219821265321764 48.7810369893169,-5.349510453942786 q117.17864757220254,6.185008832866605 233.7786351563942,23.208288303439417 c32.55541092549193,4.757699102205082 65.7357746380356,10.142021988603025 97.94398957072099,3.991825588191581 s63.89563587616101,-26.21376163873482 75.76973883014419,-58.74017769600516 c1.8285655621143704,-5.012990273542914 3.47195992806526,-10.606187754671813 7.568872643182267,-13.623265234118938 c3.703423923269611,-2.692161443198973 8.552594622800758,-2.634140722440374 13.054569329525378,-2.4716827043162977 l272.0627799631938,9.376148474589526 c14.906281291160184,0.5105823426756666 30.333356571530157,0.92833153213758 43.97815908882663,-5.221864868273869 c13.228167325928641,-5.952925949832211 23.401009915159854,-17.406216227579563 33.19193691230389,-28.627423622292525 c22.39414153602093,-25.598741998693676 46.47797023703361,-57.092389226460966 39.892819573469836,-91.83519681670978 c-5.265805890898978,-27.8499459641273 -28.805694203181442,-47.310095706561256 -52.14883811954021,-60.93336094068018 s-49.09351338284278,-24.774847763921578 -66.24499542748516,-46.55582633669947 c-26.09756545929054,-33.153039841463205 -25.06755068063118,-80.60238527784509 -26.687798647061634,-123.61894764827005 a684.867242210393,686.6984384663172 0 0 0 -14.292901703868655,-115.84417106661785 c-7.071225053492913,-33.52437245431824 -16.92001804943804,-67.09516148524335 -35.332978867944135,-95.40927321543944 S917.7028235046855,235.04900747080234 885.8533777645666,230.89472386448674 c-41.59407993822182,-5.430739463004824 -83.40805067188775,20.58575172515076 -124.09942102881261,9.538606492713601 c-34.372403287846076,-9.283315321375767 -58.028023597730716,-42.273897144714894 -86.50966820762606,-65.13406112360273 c-50.58645615191084,-40.61450453101898 -116.9703299765186,-49.12034219422952 -179.7317922761783,-49.89781985239475 c-66.54589862125081,-0.8471025230755396 -134.85092360605472,5.906509373225331 -194.16357237716957,37.23769858286855 c-13.586936518495385,7.17136108576278 -26.872969843225114,15.851260911249122 -36.281981248281966,28.52298632492704 c-14.420206901231051,19.436941454130512 -17.915313228816743,45.546265795499856 -27.347471033394033,68.26718004456704 C199.7015103807895,350.91638682572363 76.05344414262538,370.6434318836471 35.917587374191044,461.15575626706084 c-14.246608904827784,32.10866686780844 -14.107730507705174,69.55524004540793 -3.726570322790046,103.2768829503054 c11.16813776860992,36.28615876242753 42.600948317360746,56.32651571244747 55.06528445911503,87.95941267003539 C73.84296298842389,661.0487434245846 50.071610680937,660.9675144155226 33.811265017831374,663.6248634262664 z" fill="#3d9968" opacity="0.1"/>
    </g>

    <g>
      <path d="M388.58666412353523,391.48577096091935 s-46.22,-66.69 -38.37,-129.63 a122.94,122.94 0 0 0 -14.8,-76.34 a206.71,206.71 0 0 0 -21.74,-30.94 " fill="none" stroke="#535461" stroke-miterlimit="10" stroke-width="2"/>
      <path d="M318.3866641235354,114.88577096091933 c3,9.05 -4.71,40.74 -4.71,40.74 s-25.09,-20.83 -28.09,-29.89 a17.27,17.27 0 0 1 32.8,-10.85 z" fill="#3d9968"/>
      <path d="M362.08666412353523,156.07577096091927 c-2.4,9.23 -26.09,31.64 -26.09,31.64 s-9.74,-31.12 -7.33,-40.35 a17.27,17.27 0 1 1 33.42,8.71 z" fill="#3d9968"/>
      <path d="M389.27666412353574,242.1857709609194 c-6.74,6.76 -38.5,14.14 -38.5,14.14 s7.3100000000000005,-31.78 14,-38.53 a17.27,17.27 0 0 1 24.46,24.39 z" fill="#3d9968"/>
      <path d="M395.16666412353516,312.0157709609193 c-5.5,7.79 -35.56,20.44 -35.56,20.44 s1.83,-32.56 7.33,-40.35 A17.27,17.27 0 0 1 395.16666412353516,312.0157709609193 z" fill="#3d9968"/>
      <path d="M302.16666412353516,200.86577096091935 c8.58,4.16 41,0.6800000000000044 41,0.6800000000000044 s-17.36,-27.6 -26,-31.77 A17.27,17.27 0 0 0 302.16666412353516,200.86577096091935 z" fill="#3d9968"/>
      <path d="M310.076664123535,282.3957709609193 c9.44,1.4 39.34,-11.620000000000001 39.34,-11.620000000000001 S324.58666412353523,249.62577096091934 315.16666412353516,248.22577096091936 a17.27,17.27 0 1 0 -5.08,34.17 z" fill="#3d9968"/>
      <path d="M328.65666412353494,360.5757709609193 c9.07,3 40.74,-4.8 40.74,-4.8 s-20.9,-25 -30,-28 a17.27,17.27 0 1 0 -10.78,32.82 z" fill="#3d9968"/>
      <path d="M318.3866641235354,114.88577096091933 c3,9.05 -4.71,40.74 -4.71,40.74 s-25.09,-20.83 -28.09,-29.89 a17.27,17.27 0 0 1 32.8,-10.85 z" opacity="0.25"/>
      <path d="M362.08666412353523,156.07577096091927 c-2.4,9.23 -26.09,31.64 -26.09,31.64 s-9.74,-31.12 -7.33,-40.35 a17.27,17.27 0 1 1 33.42,8.71 z" opacity="0.25"/>
      <path d="M389.27666412353574,242.1857709609194 c-6.74,6.76 -38.5,14.14 -38.5,14.14 s7.3100000000000005,-31.78 14,-38.53 a17.27,17.27 0 0 1 24.46,24.39 z" opacity="0.25"/>
      <path d="M395.16666412353516,312.0157709609193 c-5.5,7.79 -35.56,20.44 -35.56,20.44 s1.83,-32.56 7.33,-40.35 A17.27,17.27 0 0 1 395.16666412353516,312.0157709609193 z" opacity="0.25"/>
      <path d="M302.16666412353516,200.86577096091935 c8.58,4.16 41,0.6800000000000044 41,0.6800000000000044 s-17.36,-27.6 -26,-31.77 A17.27,17.27 0 0 0 302.16666412353516,200.86577096091935 z" opacity="0.25"/>
      <path d="M310.076664123535,282.3957709609193 c9.44,1.4 39.34,-11.620000000000001 39.34,-11.620000000000001 S324.58666412353523,249.62577096091934 315.16666412353516,248.22577096091936 a17.27,17.27 0 1 0 -5.08,34.17 z" opacity="0.25"/>
      <path d="M328.65666412353494,360.5757709609193 c9.07,3 40.74,-4.8 40.74,-4.8 s-20.9,-25 -30,-28 a17.27,17.27 0 1 0 -10.78,32.82 z" opacity="0.25"/>
      <path d="M388.326664123535,388.8057709609193 s-69.28,-42.24 -87.62,-103 A123,123 0 0 0 256.2466641235351,222.01577096091933 a206.69,206.69 0 0 0 -32.41,-19.47 " fill="none" stroke="#535461" stroke-miterlimit="10" stroke-width="2"/>
      <path d="M212.05666412353503,164.38577096091933 c6.41,7.06 12.2,39.15 12.2,39.15 s-31.37,-8.88 -37.78,-15.94 a17.27,17.27 0 1 1 25.58,-23.21 z" fill="#3d9968"/>
      <path d="M268.7066641235351,184.32577096091927 c1.54,9.42 -11,39.51 -11,39.51 S236.16666412353516,199.32577096091927 234.61666412353497,189.9057709609193 a17.27,17.27 0 0 1 34.09,-5.58 z" fill="#3d9968"/>
      <path d="M328.4566641235351,252.01577096091933 c-3.43,8.91 -29.47,28.53 -29.47,28.53 s-6.2,-32 -2.7800000000000002,-40.92 A17.27,17.27 0 1 1 328.4566641235351,252.01577096091933 z" fill="#3d9968"/>
      <path d="M362.16666412353516,313.4457709609193 c-1.87,9.36 -24.23,33.1 -24.23,33.1 s-11.52,-30.51 -9.65,-39.86 A17.27,17.27 0 1 1 362.16666412353516,313.4457709609193 z" fill="#3d9968"/>
      <path d="M230.7133307504655,248.23243758784952 c9.54,0.33000000000000196 37.77,-16 37.77,-16 S241.4333307504653,214.03243758784959 231.89333075046534,213.68243758784956 a17.27,17.27 0 0 0 -1.18,34.52 z" fill="#3d9968"/>
      <path d="M272.33666412353523,320.88577096091933 c9.2,-2.54 31.26,-26.56 31.26,-26.56 S272.326664123535,285.0157709609193 263.16666412353516,287.59577096091925 a17.27,17.27 0 1 0 9.2,33.29 z" fill="#3d9968"/>
      <path d="M321.0066641235353,384.8357709609194 c9.5,-1 35.3,-20.9 35.3,-20.9 s-29.25,-14.42 -38.74,-13.47 a17.27,17.27 0 0 0 3.44,34.37 z" fill="#3d9968"/>
    </g>

    <g>
      <ellipse cx="1234.4418246746063" cy="981.0604938268661" rx="41.75" ry="3.490000009536743" fill="#3d9968" opacity="0.1"/>
      <path d="M1267.8716895294192,870.9504272829217 a17.44,17.44 0 0 0 -2.2800000000000002,4.3 c-0.14,0.3700000000000016 -0.27,0.8 -0.4100000000000003,1.21 a4.46,4.46 0 0 0 -0.8,-0.28 a11,11 0 0 0 -3.56,-0.3000000000000003 c0,-0.4700000000000003 0.05000000000000025,-0.9500000000000006 0.07,-1.47 c0.14,-5.27 -0.4800000000000003,-12.620000000000001 -5.51,-9.5 c-4.82,3 -1.3800000000000001,8 1.73,11.2 c0.27,0.28 0.54,0.54 0.8,0.79 c-2.83,2 -3.38,6.73 -3.85,11.64 s-4.6400000000000015,10.28 -7.4,13.33 l-0.79,0.8500000000000006 a10.12,10.12 0 0 0 -8,-2.07 c-0.12000000000000002,-0.4300000000000003 -0.2400000000000002,-0.8800000000000032 -0.3800000000000016,-1.35 c-2.23,-8.09 -6.88,-22.1 -12.82,-25.17 c0.26,-0.3100000000000016 0.52,-0.6400000000000037 0.79,-1 c2.52,-3.3 5.35,-8.19 1.1600000000000001,-9.44 s-4.5600000000000005,4.24 -4.33,8.36 q0,0.78 0.12000000000000002,1.47 a6.15,6.15 0 0 0 -4.39,2.14 l-0.6400000000000037,-0.77 c-3.4,-4 -9.64,-10.37 -11.52,-5.5600000000000005 c-1.7600000000000002,4.48 3.72,10.3 7.58,13.67 l0.25,0.21000000000000021 c-2.6,10.51 8.71,19.08 14.8,22.83 l0.79,0.4800000000000003 c-8.4,9.9 -13.58,28.46 -13.58,28.46 l23.52,4.2 s15.59,-13.46 13.6,-26.1 l0.16000000000000092,0 c15.58,-3.12 19.13,-19.74 16.7,-29.61 l0.27,-0.11000000000000022 a17.65,17.65 0 0 0 7.22,-5.46 C1281.491689529419,871.8204272829216 1272.401689529419,864.9504272829217 1267.8716895294192,870.9504272829217 z" fill="#3d9968"/>
      <path d="M1267.8716895294192,870.9504272829217 a17.44,17.44 0 0 0 -2.2800000000000002,4.3 c-0.14,0.3700000000000016 -0.27,0.8 -0.4100000000000003,1.21 a4.46,4.46 0 0 0 -0.8,-0.28 a11,11 0 0 0 -3.56,-0.3000000000000003 c0,-0.4700000000000003 0.05000000000000025,-0.9500000000000006 0.07,-1.47 c0.14,-5.27 -0.4800000000000003,-12.620000000000001 -5.51,-9.5 c-4.82,3 -1.3800000000000001,8 1.73,11.2 c0.27,0.28 0.54,0.54 0.8,0.79 c-2.83,2 -3.38,6.73 -3.85,11.64 s-4.6400000000000015,10.28 -7.4,13.33 l-0.79,0.8500000000000006 a10.12,10.12 0 0 0 -8,-2.07 c-0.12000000000000002,-0.4300000000000003 -0.2400000000000002,-0.8800000000000032 -0.3800000000000016,-1.35 c-2.23,-8.09 -6.88,-22.1 -12.82,-25.17 c0.26,-0.3100000000000016 0.52,-0.6400000000000037 0.79,-1 c2.52,-3.3 5.35,-8.19 1.1600000000000001,-9.44 s-4.5600000000000005,4.24 -4.33,8.36 q0,0.78 0.12000000000000002,1.47 a6.15,6.15 0 0 0 -4.39,2.14 l-0.6400000000000037,-0.77 c-3.4,-4 -9.64,-10.37 -11.52,-5.5600000000000005 c-1.7600000000000002,4.48 3.72,10.3 7.58,13.67 l0.25,0.21000000000000021 c-2.6,10.51 8.71,19.08 14.8,22.83 l0.79,0.4800000000000003 c-8.4,9.9 -13.58,28.46 -13.58,28.46 l23.52,4.2 s15.59,-13.46 13.6,-26.1 l0.16000000000000092,0 c15.58,-3.12 19.13,-19.74 16.7,-29.61 l0.27,-0.11000000000000022 a17.65,17.65 0 0 0 7.22,-5.46 C1281.491689529419,871.8204272829216 1272.401689529419,864.9504272829217 1267.8716895294192,870.9504272829217 z" opacity="0.1"/>
      <path d="M1221.051689529419,877.7104272829217 l-2.75,8 s-1.53,-1.08 -3.46,-2.7800000000000002 c-3.85,-3.37 -9.34,-9.19 -7.58,-13.67 c1.8800000000000003,-4.8100000000000005 8.12,1.54 11.52,5.5600000000000005 C1220.1416895294187,876.4704272829217 1221.051689529419,877.7104272829217 1221.051689529419,877.7104272829217 z" fill="#3d9968"/>
      <path d="M1226.861689529419,873.1104272829216 a40.53,40.53 0 0 1 -2.68,3.16 a39,39 0 0 1 -0.4900000000000003,-4.24 c-0.23,-4.12 0.2,-9.59 4.33,-8.36 S1229.401689529419,869.8104272829219 1226.861689529419,873.1104272829216 z" fill="#3d9968"/>
      <path d="M1262.3316895294188,874.3804272829216 c-0.09000000000000066,2.6500000000000004 -0.3500000000000003,4.77 -0.3500000000000003,4.77 a34.92,34.92 0 0 1 -3.43,-3.07 c-3.11,-3.23 -6.55,-8.21 -1.73,-11.2 C1261.8516895294188,861.7604272829217 1262.471689529419,869.1104272829216 1262.3316895294188,874.3804272829216 z" fill="#3d9968"/>
      <path d="M1278.571689529419,877.8504272829218 a17.69,17.69 0 0 1 -7.21,5.46 a22.49,22.49 0 0 1 -2.42,0.8800000000000032 l-3.24,-4.55 a32.25,32.25 0 0 1 1.33,-4.42 a17.44,17.44 0 0 1 2.2800000000000002,-4.3 C1273.7916895294188,864.9504272829217 1282.9316895294187,871.8204272829216 1278.571689529419,877.8504272829218 z" fill="#3d9968"/>
      <path d="M1218.781689529419,874.8704272829218 c1.36,1.6 2.27,2.84 2.27,2.84 l-2.75,8 s-1.53,-1.08 -3.46,-2.7800000000000002 a15.81,15.81 0 0 1 3.1,-7.07 A13.1,13.1 0 0 1 1218.781689529419,874.8704272829218 z" opacity="0.1"/>
      <path d="M1226.861689529419,873.1104272829216 a40.53,40.53 0 0 1 -2.68,3.16 a39,39 0 0 1 -0.4900000000000003,-4.24 A5.55,5.55 0 0 1 1226.861689529419,873.1104272829216 z" opacity="0.1"/>
      <path d="M1240.401689529419,905.0704272829216 l-6.84,3 s-1.5,-0.7200000000000006 -3.6500000000000004,-2.06 c-7.18,-4.42 -21.64,-15.55 -12,-28.67 s17.77,10.41 21,21.92 C1239.861689529419,902.7104272829217 1240.401689529419,905.0704272829216 1240.401689529419,905.0704272829216 z" fill="#3d9968"/>
      <path d="M1258.551689529419,876.0804272829218 a5.6,5.6 0 0 1 3.7800000000000002,-1.7000000000000002 c-0.09000000000000066,2.6500000000000004 -0.3500000000000003,4.77 -0.3500000000000003,4.77 A34.92,34.92 0 0 1 1258.551689529419,876.0804272829218 z" opacity="0.1"/>
      <path d="M1271.401689529419,883.3104272829219 a22.49,22.49 0 0 1 -2.42,0.8800000000000032 l-3.24,-4.55 a32.25,32.25 0 0 1 1.33,-4.42 C1269.1216895294192,876.4404272829217 1270.6616895294192,879.4804272829217 1271.401689529419,883.3104272829219 z" opacity="0.1"/>
      <path d="M1254.401689529419,913.0304272829217 c-0.3800000000000016,0.08000000000000022 -0.77,0.15000000000000024 -1.1600000000000001,0.2 c-22.92,3.49 -7.5600000000000005,-8.88 -7.5600000000000005,-8.88 s1,-0.9500000000000006 2.44,-2.51 c2.7600000000000002,-3 6.92,-8.39 7.4,-13.33 c0.7200000000000006,-7.43 1.55,-14.4 10.32,-12.36 S1276.0816895294188,908.6804272829218 1254.401689529419,913.0304272829217 z" fill="#3d9968"/>
      <rect x="1210.1416537761688" y="970.1204303503036" width="43.810001373291016" height="11.520000457763672" fill="#d4dfec"/>
      <rect x="1203.1716830730438" y="932.6803668737411" width="57.2400016784668" height="40.20000076293945" fill="#d4dfec"/>
      <rect x="1210.1416537761688" y="970.1204303503036" width="43.810001373291016" height="11.520000457763672" opacity="0.1"/>
      <rect x="1203.1716830730438" y="932.6803668737411" width="57.2400016784668" height="40.20000076293945" opacity="0.1"/>
      <rect x="1213.0217807292938" y="970.1204303503036" width="43.810001373291016" height="11.520000457763672" fill="#d4dfec"/>
      <path d="M1238.8916895294187,899.2704272829219 c1,3.44 1.49,5.8 1.49,5.8 l-6.84,3 s-1.5,-0.7200000000000006 -3.6500000000000004,-2.06 C1232.571689529419,902.6204272829218 1235.6016895294188,900.0604272829219 1238.8916895294187,899.2704272829219 z" opacity="0.1"/>
      <path d="M1254.401689529419,913.0304272829217 c-0.3800000000000016,0.08000000000000022 -0.77,0.15000000000000024 -1.1600000000000001,0.2 c-22.92,3.49 -7.5600000000000005,-8.88 -7.5600000000000005,-8.88 s1,-0.9500000000000006 2.44,-2.51 C1252.401689529419,905.2704272829219 1254.151689529419,909.1304272829216 1254.401689529419,913.0304272829217 z" opacity="0.1"/>
      <path d="M1217.1016895294188,934.9504272829217 s12.84,-46 30.84,-31.81 s-7.32,36 -7.32,36 z" fill="#3d9968"/>
      <circle cx="1223.5817172527313" cy="884.5604938268661" r="1.440000057220459" opacity="0.1"/>
      <circle cx="1223.4618442058563" cy="891.2804645299911" r="1.440000057220459" opacity="0.1"/>
      <circle cx="1265.2216098308563" cy="885.8804401159286" r="1.440000057220459" opacity="0.1"/>
      <circle cx="1231.6217563152313" cy="920.3203815221786" r="1.440000057220459" opacity="0.1"/>
      <circle cx="1262.2216098308563" cy="897.0404742956161" r="1.440000057220459" opacity="0.1"/>
      <circle cx="1247.3417270183563" cy="911.9203571081161" r="1.440000057220459" opacity="0.1"/>
      <circle cx="1228.5018832683563" cy="887.4403766393661" r="1.440000057220459" opacity="0.1"/>
      <circle cx="1261.2616488933563" cy="890.2003864049911" r="1.440000057220459" opacity="0.1"/>
      <circle cx="1256.3417270183563" cy="901.3604205846786" r="1.440000057220459" opacity="0.1"/>
      <circle cx="1241.2216098308563" cy="919.2404254674911" r="1.440000057220459" opacity="0.1"/>
      <circle cx="1238.1017367839813" cy="912.1603473424911" r="1.440000057220459" opacity="0.1"/>
      <circle cx="1230.6617953777313" cy="896.2003864049911" r="1.440000057220459" opacity="0.1"/>
      <rect x="1213.0217807292938" y="970.1204303503036" width="43.810001373291016" height="4.210000038146973" opacity="0.1"/>
      <rect x="1206.0615756511688" y="932.6803668737411" width="57.2400016784668" height="40.20000076293945" fill="#d4dfec"/>
      <circle cx="1243.1417758464813" cy="925.7204059362411" r="1.440000057220459" opacity="0.1"/>
      <circle cx="1234.5018832683563" cy="927.5204547643661" r="1.440000057220459" opacity="0.1"/>
    </g>

    <g>
      <path d="M754.068359375,854.3715395198983 v6.41 H564.4483593750001 V855.5615395198984 a62.33,62.33 0 0 0 4.29,-115.12 H752.818359375 A62.37,62.37 0 0 0 754.068359375,854.3715395198983 z" fill="#c8cad7"/>
      <path d="M752.818359375,740.4515395198982 a62.43,62.43 0 0 0 -34.46,41.33 H603.1983593750001 a62.43,62.43 0 0 0 -34.46,-41.33 z" opacity="0.1"/>
      <path d="M347.27835937500004,707.7815395198984 v36 c0,19.88 14.55,36 32.5,36 h558 c17.95,0 32.5,-16.12 32.5,-36 v-36 z" fill="#c8cad7"/>
      <path d="M970.278359375,313.2815395198984 a32.5,32.5 0 0 0 -32.5,-32.5 h-558 a32.5,32.5 0 0 0 -32.5,32.5 v401.5 h623 z" fill="#474157"/>
      <rect x="364.27839279174805" y="311.7815726995468" width="589" height="377" rx="16" ry="16" fill="#ededf4"/>
      <path d="M754.068359375,854.3715395198983 v6.41 H564.4483593750001 V855.5615395198984 A62.2,62.2 0 0 0 579.068359375,847.7815395198984 h163.4 A62.47,62.47 0 0 0 754.068359375,854.3715395198983 z" opacity="0.1"/>
      <circle cx="658.7783317565918" cy="296.2815726995468" r="7.5" fill="#fff"/>
      <path d="M953.278359375,327.7815395198984 h-589 a16,16 0 0 1 16,-16 h557 A16,16 0 0 1 953.278359375,327.7815395198984 z" fill="#c8cad7"/>
      <circle cx="380.27839279174805" cy="319.7815726995468" r="4" fill="#ededf4"/>
      <circle cx="392.2783317565918" cy="319.7815726995468" r="4" fill="#ededf4"/>
      <circle cx="404.2783317565918" cy="319.7815726995468" r="4" fill="#ededf4"/>
      <rect x="386.27839279174805" y="341.2815726995468" width="151" height="9" fill="#3d9968"/>
      <rect x="386.27839279174805" y="604.2814811468124" width="151" height="9" fill="#3d9968"/>
      <rect x="386.27839279174805" y="624.2814811468124" width="280" height="9" fill="#3d9968" opacity="0.2"/>
      <rect x="386.27839279174805" y="637.2914909124374" width="280" height="9" fill="#3d9968" opacity="0.2"/>
      <rect x="386.27839279174805" y="650.2914909124374" width="280" height="9" fill="#3d9968" opacity="0.2"/>
      <rect x="386.27839279174805" y="365.2815726995468" width="278" height="151" fill="#3d9968" opacity="0.2"/>
      <rect x="389.2783317565918" y="530.2815421819687" width="65" height="60" fill="#3d9968" opacity="0.2"/>
      <circle cx="658.7783317565918" cy="745.2814811468124" r="18.5" fill="#fff"/>
      <rect x="492.7783317565918" y="530.2815421819687" width="65" height="60" fill="#3d9968" opacity="0.2"/>
      <rect x="599.2783317565918" y="530.2815421819687" width="65" height="60" fill="#3d9968" opacity="0.2"/>
      <rect x="723.6182975769043" y="409.20155560970306" width="191.3300018310547" height="140.8300018310547" fill="#3d9968" opacity="0.2"/>
      <rect x="743.7783317565918" y="437.7815726995468" width="151" height="9" fill="#ededf4"/>
      <rect x="743.7783317565918" y="456.45155560970306" width="151" height="9" fill="#ededf4"/>
      <rect x="743.7783317565918" y="475.12159955501556" width="151" height="9" fill="#ededf4"/>
      <rect x="743.7783317565918" y="493.7815726995468" width="151" height="9" fill="#ededf4"/>
      <rect x="743.7783317565918" y="512.4515250921249" width="151" height="9" fill="#ededf4"/>
      <rect x="746.9482536315918" y="566.0315421819687" width="144.6699981689453" height="25.329999923706055" fill="#3d9968"/>
      <rect x="739.2182731628418" y="650.4315055608749" width="97.01000213623047" height="16.989999771118164" fill="#3d9968"/>
      <rect x="501.7783317565918" y="849.7814811468124" width="315" height="19" rx="9.5" ry="9.5" fill="#c8cad7"/>
      <g>
        <rect x="409.2835807800293" y="388.1407035589218" width="230.47032165527344" height="9.293160438537598" fill="#3f3d56"/>
        <rect x="409.2835807800293" y="408.5856498479843" width="230.47032165527344" height="9.293160438537598" fill="#3f3d56"/>
        <rect x="409.2835807800293" y="429.0305961370468" width="78.06253051757812" height="9.293160438537598" fill="#3f3d56"/>
      </g>
    </g>

    <g>
      <path d="M857.5030849707032,38.92207834642119 c-10.91222,-18.43827 -32.50116,-19.29757 -32.50116,-19.29757 s-21.0372,-2.69022 -34.53243,25.39149 c-12.57864,26.17446 -29.93875,51.44643 -2.79484,57.57369 l4.9030000000000005,-15.26027 l3.03639,16.39637 a106.20415,106.20415 0 0 0 11.61387,0.1984900000000012 c29.06893,-0.93851 56.7527,0.27459 55.86132,-10.15657 C861.904284970703,79.90096834642122 868.0028449707031,56.663378346421155 857.5030849707032,38.92207834642119 z" fill="#2f2e41"/>
      <polygon points="778.8500366210938,187.73504257202148 776.553955078125,229.05804061889648 843.89599609375,235.94604110717773 846.19091796875,193.09203720092773 823.2340087890625,178.55303573608398 778.8500366210938,187.73504257202148 " fill="#a0616a"/>
      <path d="M959.8295349707032,278.4165183464212 c-2.0195,-19.52168 -82.19232,-28.38305 -101.45987,-30.23328 l-7.20435,-4.20257 l-2.29573,-24.48771 s-71.16741,-6.12193 -76.5241,-6.88717 s-9.94813,9.18289 -9.94813,11.47862 c0,1.6591500000000003 -1.00111,13.5075 -5.02171,20.53016 c-8.68243,6.97666 -35.15344,28.92858 -35.15344,37.24553 c0,9.94813 21.04412,135.065 21.04412,135.065 l2.29573,26.01819 l21.42675,3.82621 l-1.53049,-81.11555 s7.65241,-46.6797 -3.061,-59.6888 v-5.35668 s31.42257,-8.18664 42.49722,-17.10032 c3.209,-0.6895800000000006 12.22685,-2.38844 17.20732,-0.911 c0.683000000000003,0.40219 1.47051,0.81526 2.34588,1.23548 a3.57764,3.57764 0 0 1 0.31672000000000117,0.32316000000000117 s0.03129000000000001,-0.04815000000000022 0.08641000000000022,-0.13227 c14.32632,6.70557 51.07713,15.16353 66.10694,12.758750000000001 a52.60028,52.60028 0 0 1 33.6706,6.12193 c-8.41765,10.71337 -2.29572,41.323 -2.29572,41.323 l0.765240000000003,65.81073 l10.71337,13.0091 h14.53958 V387.0807683464212 S962.1252549707033,300.6085083464211 959.8295349707032,278.4165183464212 z" fill="#2f2e41"/>
      <circle cx="818.2598991394043" cy="64.14903485774994" r="25.25295066833496" fill="#a0616a"/>
      <path d="M802.9551249707031,80.21909834642122 s3.82621,16.8353 -1.5304799999999998,18.36578 a72.42051,72.42051 0 0 0 -12.24386,5.35669 L783.0588449707031,123.83782834642125 v19.89627 l74.22837,8.41765 l2.29573,-6.88717 v-9.94813 l-8.41765,-15.30482 l-3.82621,-3.82621 s-16.8353,-18.36578 -13.0091,-35.96632 z" fill="#a0616a"/>
      <path d="M869.1484749707031,141.05576834642125 s2.29572,26.78343 0,39.02729 s-1.5304799999999998,30.60964 -1.5304799999999998,30.60964 l-16.8353,-3.061 v-41.323 l3.8262,-22.192 z" fill="#a0616a"/>
      <circle cx="827.6441764831543" cy="19.71789014339447" r="15.609990119934082" fill="#2f2e41"/>
      <path d="M810.391034970703,15.609998346421207 A15.61059,15.61059 0 0 1 824.3578449707031,0.08776834642122822 a15.61,15.61 0 1 0 0,31.04447 A15.6106,15.6106 0 0 1 810.391034970703,15.609998346421207 z" fill="#2f2e41"/>
      <polygon points="852.678955078125,37.14505672454834 831.349853515625,25.972049117088318 801.89599609375,30.543033123016357 795.802001953125,57.45804214477539 810.970947265625,56.8740348815918 815.208984375,46.98603057861328 815.208984375,56.71104049682617 822.208984375,56.44205856323242 826.27197265625,40.699042320251465 828.8109130859375,57.45804214477539 853.6940307617188,56.95005416870117 852.678955078125,37.14505672454834 " fill="#2f2e41"/>
      <path d="M759.719014970703,128.04665834642117 l-13.77434,56.62783 s-5.35669,12.24386 6.88717,19.89627 s39.79253,17.60054 39.79253,17.60054 s24.48771,33.67061 27.54868,19.89627 s-18.36579,-31.37488 -18.36579,-31.37488 l-37.49681,-23.72247 l14.53958,-39.79254 z" fill="#a0616a"/>
      <path d="M859.2003449707031,199.2140683464212 s11.47861,-1.5304799999999998 10.71337,11.47862 s-16.07006,14.53958 -16.07006,14.53958 s-6.88717,29.07915 -16.8353,23.72247 s5.35668,-34.43585 5.35668,-34.43585 l13.0091,-9.94813 z" fill="#a0616a"/>
      <path d="M785.3545849707032,123.07258834642118 l12.24386,-25.25295 l-24.48772,8.41765 s-13.774329999999999,6.88717 -14.53958,22.95723 s17.60055,24.48771 17.60055,24.48771 s3.061,22.95723 1.5304799999999998,26.0182 s0,15.30482 0,15.30482 s29.46178,-8.035 44.00136,1.9131 s26.40081,4.20882 26.40081,4.20882 s-0.765240000000003,-19.131 5.35669,-22.192 s11.47861,-17.60055 6.12193,-26.78344 c0,0 12.24385,1.5304799999999998 11.47861,-9.94813 s-6.88717,-21.42675 -16.8353,-26.0182 s-11.04785,-5.325 -11.04785,-5.325 l14.10881,25.98654 v6.88717 s-24.97661,-15.94252 -49.68752,-17.27106 a32.91358,32.91358 0 0 0 -22.24467,7.32256 l-0.00046000000000000245,0.000370000000000002 z" fill="#2f2e41"/>
      <path d="M765.7982649707033,417.24533834642114 s10.85884,5.11 14.05262,7.0263 s15.96888,-1.9162599999999999 13.41385,9.58133 S779.8508449707033,456.20939834642115 779.8508449707033,456.20939834642115 s-5.11005,5.7488 -5.11005,9.58133 s-12.7751,33.21527 -28.10523,31.93776 s-12.7751,-16.60763 -12.7751,-16.60763 l3.19378,-16.60764 s6.38755,-28.10523 7.66506,-27.46647 s4.47129,5.11 4.47129,5.11 S765.1595149707032,435.76923834642116 765.7982649707033,417.24533834642114 z" fill="#d0cde1"/>
      <path d="M925.0537449707031,398.11430834642124 s-10.85884,5.11 -14.05262,7.02631 s-15.96888,-1.91627 -13.41386,9.58133 s13.41386,22.35643 13.41386,22.35643 s5.11,5.7488 5.11,9.58133 s12.77511,33.21527 28.10523,31.93776 s12.77511,-16.60764 12.77511,-16.60764 l-3.19378,-16.60763 s-6.38755,-28.10523 -7.66506,-27.46648 s-4.47129,5.11005 -4.47129,5.11005 S925.6924949707031,416.63820834642115 925.0537449707031,398.11430834642124 z" fill="#d0cde1"/>
    </g>

    <g>
      <path d="M307.2601338870144,683.6346963851547 l-9.233,13.90718 a11.90547,11.90547 0 0 0 4.72248,16.29012 h0 a11.90548,11.90548 0 0 0 17.5161,-9.342 l-1.51509,-12.89132 l7.11083,-83.58177 l12.12939,-54.97613 l-25.1834,-7.14947 l-11.72211,61.82257 z" fill="#9f616a"/>
      <path d="M437.48524388701435,947.3971863851547 L413.08012388701445,948.4582863851547 l-54.78719,-187.721 L298.4083138870144,949.9084863851547 l-23.27016,-0.3891100000000006 l37.607730000000004,-221.79178 c-11.06488,-30.31918 -3.88368,-58.01451 13.26389,-84.27659 l2.57859,-16.38424 l66.4532,-1.18049 l6.24482,62.153 z" fill="#2f2e41"/>
      <path d="M420.52289388701433,980.7802663851547 c3.43773,1.569 6.74208,-11.51838 9.21708,-8.29293 c9.573,12.47553 28.2134,8.16962 27.569,6.18413 a5.07028,5.07028 0 0 0 3.19583,-6.60734 h0 a5.0703,5.0703 0 0 0 -3.51774,-3.13861 l-8.62612,-2.15653 L434.81669388701437,942.9497863851548 l-14.76084,-1.86817 l-0.372820000000001,0.6097100000000006 a38.059,38.059 0 0 0 -4.0785,31.12072 C416.8320838870144,976.7452963851547 418.50298388701435,979.8583963851547 420.52289388701433,980.7802663851547 z" fill="#2f2e41"/>
      <path d="M279.89261388701436,980.7802663851547 c3.43773,1.569 6.74207,-11.51838 9.21708,-8.29293 c9.573,12.47553 28.2134,8.16962 27.569,6.18413 a5.07028,5.07028 0 0 0 3.19583,-6.60734 h0 a5.07029,5.07029 0 0 0 -3.5177300000000002,-3.13861 l-8.62613,-2.15653 L294.18642388701437,942.9497863851548 l-14.76084,-1.86817 l-0.37283000000000055,0.6097100000000006 a38.05907,38.05907 0 0 0 -4.0785,31.12072 C276.2017938870144,976.7452963851547 277.8727038870144,979.8583963851547 279.89261388701436,980.7802663851547 z" fill="#2f2e41"/>
      <path d="M295.2914238870144,594.0853763851547 l19.19988,-65.54036 a17.97906,17.97906 0 0 1 21.09765,-14.19092 h0 a17.97906,17.97906 0 0 1 14.19092,21.09766 l-15.69728,59.85364 C322.7095838870144,583.3296263851547 309.6411538870144,583.9484463851547 295.2914238870144,594.0853763851547 z" fill="#3d9968"/>
      <path d="M465.00775388701436,533.0588563851547 l-36.36191,8.021 l1.5634000000000001,-28.92287 h29.70457 l19.1417,-58.01277 l-0.25119,-15.01287 A9.7636,9.7636 0 0 1 487.3584238870144,426.72118638515474 h0 a9.7636,9.7636 0 0 1 9.94664,13.23286 l-6.5421700000000005,17.7925 L481.8014238870144,512.1569963851548 v0 A21.40433,21.40433 0 0 1 465.00775388701436,533.0588563851547 z" fill="#9f616a"/>
      <circle cx="365.7190818786621" cy="460.95569932460785" r="31.267959594726562" fill="#9f616a"/>
      <path d="M371.5818138870144,527.0092763851547 l-46.12024,0.7817000000000006 c7.36535,-23.09586 12.42445,-44.690220000000004 11.72548,-62.53592 h35.17646 A306.82039,306.82039 0 0 0 371.5818138870144,527.0092763851547 z" fill="#9f616a"/>
      <path d="M401.6772338870144,631.3661063851548 l-75.60666,11.49764 c-11.94391,-34.66189 -12.29556,-74.66383 -5.92259,-104.26765 a48.67768,48.67768 0 0 1 13.13056,-38.94627 h0 l36.73985,3.90849 h0 a23.51105,23.51105 0 0 1 17.66713,17.08469 c14.17535,19.65192 24.56025,38.247 13.07514,50.74412 z" fill="#3d9968"/>
      <path d="M447.40662388701435,547.3334563851547 l-68.00784,-6.25359 a17.97906,17.97906 0 0 1 -17.97906,-17.97906 v0 a17.97906,17.97906 0 0 1 17.97906,-17.97906 l61.75425,3.90849 C431.58475388701436,522.4917763851547 434.7022038870143,535.1980163851547 447.40662388701435,547.3334563851547 z" fill="#3d9968"/>
      <path d="M323.1161838870144,519.5245963851547 l-23.09918,-0.5935400000000006 c3.6870900000000004,-32.29224 5.60728,-68.683 24.44676,-87.38923 c2.3972,-2.38025 4.549,-4.84521 6.69665,-7.31439 c4.27671,-4.91691 13.34,-7.73949 22.60615,-6.6680600000000005 l4.54044,0.525 c14.9056,1.72351 46.1707,12.41042 45.26513,21.746 c-0.4611200000000003,4.7536700000000005 -0.7723,13.306000000000001 -12.08568,13.41362 c-9.137,12.25945 -25.47543,19.06639 -18.65353,30.71223 c13.64877,12.17515 -4.111,21.82749 -18.433,29.10063 C345.6192938870144,517.5159063851547 334.4809338870144,519.8166163851547 323.1161838870144,519.5245963851547 z" fill="#2f2e41"/>
    </g>
  </g>
</svg>