<svg class="fill-current" xmlns="http://www.w3.org/2000/svg" xmlns:xlink="http://www.w3.org/1999/xlink" viewBox="0 0 256 256">
  <path fill="currentColor"
    d="M128 256C57.35 256 0 198.65 0 128C0 57.35 57.35 0 128 0C198.65 0 256 57.35 256 128C256 198.65 198.65 256 128 256Z">
  </path>
  <path fill="#ffffff"
    d="M103.85 136.81C118.17 149.33 125.52 164.39 120.25 170.42C114.98 176.45 99.07 171.17 84.75 158.65C70.43 146.12 63.08 131.06 68.36 125.03C73.63 119 89.53 124.28 103.85 136.81Z">
  </path>
  <path fill="#ffffff"
    d="M137.75 108.5C137.75 131.6 137.75 194.4 137.75 217.5C137.75 221.09 134.84 224 131.25 224C128.65 224 127.35 224 124.75 224C121.16 224 118.25 221.09 118.25 217.5C118.25 194.4 118.25 131.6 118.25 108.5C118.25 104.91 121.16 102 124.75 102C127.35 102 128.65 102 131.25 102C134.84 102 137.75 104.91 137.75 108.5Z">
  </path>
  <path fill="#ffffff"
    d="M84.49 177.21C103.34 179.77 119.52 175.42 120.61 167.48C121.69 159.55 107.26 151.02 88.41 148.46C69.56 145.89 53.37 150.25 52.29 158.18C51.21 166.12 65.64 174.64 84.49 177.21Z">
  </path>
  <path fill="#ffffff"
    d="M69.21 139.72C83.53 152.25 90.87 167.31 85.6 173.34C80.33 179.36 64.42 174.09 50.1 161.56C35.78 149.04 28.44 133.97 33.71 127.95C38.98 121.92 54.89 127.2 69.21 139.72Z">
  </path>
  <path fill="#ffffff"
    d="M64.74 149.54C83.59 152.11 99.77 147.75 100.85 139.82C101.93 131.88 87.5 123.36 68.65 120.79C49.8 118.23 33.62 122.58 32.54 130.52C31.46 138.45 45.89 146.98 64.74 149.54Z">
  </path>
  <path fill="#ffffff"
    d="M136.36 78.86C122.04 91.38 114.69 106.45 119.96 112.47C125.23 118.5 141.14 113.23 155.46 100.7C169.78 88.17 177.13 73.11 171.86 67.08C166.58 61.06 150.68 66.33 136.36 78.86Z">
  </path>
  <path fill="#ffffff"
    d="M156.49 119.26C137.63 121.83 121.45 117.47 120.37 109.54C119.29 101.6 133.72 93.08 152.57 90.51C171.42 87.95 187.6 92.3 188.68 100.24C189.76 108.17 175.34 116.7 156.49 119.26Z">
  </path>
  <path fill="#ffffff"
    d="M171.77 81.78C157.45 94.3 150.11 109.36 155.38 115.39C160.65 121.42 176.56 116.14 190.88 103.62C205.2 91.09 212.54 76.03 207.27 70C202 63.97 186.09 69.25 171.77 81.78Z">
  </path>
  <path fill="#ffffff"
    d="M176.72 91.02C157.87 93.59 141.69 89.23 140.61 81.29C139.53 73.36 153.96 64.83 172.81 62.27C191.66 59.7 207.84 64.06 208.92 71.99C210 79.93 195.57 88.45 176.72 91.02Z">
  </path>
</svg>